<svg xmlns="http://www.w3.org/2000/svg" width="496mm" height="863mm" viewBox="0 0 496 863">
<title>Tau flat-pack box 267</title>
<rect x="0" y="0" width="496" height="863" fill="white"/>
<text x="15.00" y="14.00" style="font-family:Arial;font-size:13px;font-weight:bold;fill:#000" text-anchor="start">TAU — FLAT-PACK box (267): rectangular telescoping tray, 1 unit = 1 mm</text>
<text x="15.00" y="27.00" style="font-family:Arial;font-size:9px;fill:#333" text-anchor="start">Inner 292.4 x 271.7 x 79.0 deep. Packing: steel disk flat -> 2 rim segments stacked (16.0 mm) -> insert tray -> pieces -> pad.</text>
<text x="20.00" y="40.00" style="font-family:Arial;font-size:9px;fill:#333" text-anchor="start">BASE tray  292.4 x 271.7 x 79.0</text>
<rect x="99.0" y="125.0" width="292.4" height="271.7" style="fill:none;stroke:#c22;stroke-width:0.4;stroke-dasharray:4,3"/><polygon points="99.0,46.0 391.4,46.0 391.4,125.0 409.4,125.0 409.4,396.7 391.4,396.7 391.4,475.7 99.0,475.7 99.0,396.7 81.0,396.7 81.0,125.0 99.0,125.0" style="fill:none;stroke:#000;stroke-width:0.4"/><line x1="99.0" y1="125.0" x2="391.4" y2="125.0" style="fill:none;stroke:#c22;stroke-width:0.4;stroke-dasharray:4,3"/><line x1="99.0" y1="396.7" x2="391.4" y2="396.7" style="fill:none;stroke:#c22;stroke-width:0.4;stroke-dasharray:4,3"/><line x1="99.0" y1="125.0" x2="99.0" y2="396.7" style="fill:none;stroke:#c22;stroke-width:0.4;stroke-dasharray:4,3"/><line x1="391.4" y1="125.0" x2="391.4" y2="396.7" style="fill:none;stroke:#c22;stroke-width:0.4;stroke-dasharray:4,3"/><text x="20.00" y="503.70" style="font-family:Arial;font-size:9px;fill:#333" text-anchor="start">LID  297.59999999999997 x 276.9 x 33 (telescopes over base)</text>
<rect x="53" y="542.7" width="297.59999999999997" height="276.9" style="fill:none;stroke:#c22;stroke-width:0.4;stroke-dasharray:4,3"/><polygon points="53.0,509.7 350.6,509.7 350.6,542.7 368.6,542.7 368.6,819.6 350.6,819.6 350.6,852.6 53.0,852.6 53.0,819.6 35.0,819.6 35.0,542.7 53.0,542.7" style="fill:none;stroke:#000;stroke-width:0.4"/><line x1="53" y1="542.7" x2="350.59999999999997" y2="542.7" style="fill:none;stroke:#c22;stroke-width:0.4;stroke-dasharray:4,3"/><line x1="53" y1="819.6" x2="350.59999999999997" y2="819.6" style="fill:none;stroke:#c22;stroke-width:0.4;stroke-dasharray:4,3"/><line x1="53" y1="542.7" x2="53" y2="819.6" style="fill:none;stroke:#c22;stroke-width:0.4;stroke-dasharray:4,3"/><line x1="350.59999999999997" y1="542.7" x2="350.59999999999997" y2="819.6" style="fill:none;stroke:#c22;stroke-width:0.4;stroke-dasharray:4,3"/></svg>
