<svg xmlns="http://www.w3.org/2000/svg" width="1360mm" height="704mm" viewBox="0 0 1360 704">
<title>Tau box dieline (disk-in-base)</title>
<rect x="0" y="0" width="1360" height="704" fill="white"/>
<text x="15.00" y="12.00" style="font-family:Arial;font-size:13px;font-weight:bold;fill:#000" text-anchor="start">TAU — round telescoping box dieline (steel edition, disk-in-base)</text>
<text x="15.00" y="24.00" style="font-family:Arial;font-size:9px;fill:#333" text-anchor="start">1 SVG unit = 1 mm. Solid = cut, dashed red = crease, blue = glue area.</text>
<text x="15.00" y="34.00" style="font-family:Arial;font-size:9px;fill:#333" text-anchor="start">Base Ø297.5 (widest) drops straight in · box inner Ø302.5 × 81 deep · greyboard 2.0 · lid slip 0.6/side</text>
<circle cx="170.85" cy="205.25" r="151.25" style="fill:none;stroke:#000;stroke-width:0.4"/>
<text x="170.85" y="199.25" style="font-family:Arial;font-size:9px;fill:#333" text-anchor="middle">BASE bottom disc</text>
<text x="170.85" y="211.25" style="font-family:Arial;font-size:8px;fill:#555" text-anchor="middle">Ø302.5</text>
<circle cx="170.85" cy="529.35" r="153.85" style="fill:none;stroke:#000;stroke-width:0.4"/>
<text x="170.85" y="523.35" style="font-family:Arial;font-size:9px;fill:#333" text-anchor="middle">LID top disc</text>
<text x="170.85" y="535.35" style="font-family:Arial;font-size:8px;fill:#555" text-anchor="middle">Ø307.7</text>
<rect x="356.70" y="52.00" width="971.61" height="81.00" style="fill:none;stroke:#000;stroke-width:0.4"/>
<rect x="356.70" y="52.00" width="15.00" height="81.00" style="fill:#9db8d9;fill-opacity:0.35;stroke:none"/>
<line x1="371.70" y1="52.00" x2="371.70" y2="133.00" style="fill:none;stroke:#c22;stroke-width:0.4;stroke-dasharray:4,3"/>
<rect x="389.59" y="133.00" width="24.00" height="12.00" style="fill:none;stroke:#000;stroke-width:0.4"/>
<rect x="389.59" y="133.00" width="24.00" height="12.00" style="fill:#9db8d9;fill-opacity:0.35;stroke:none"/>
<line x1="389.59" y1="133.00" x2="413.59" y2="133.00" style="fill:none;stroke:#c22;stroke-width:0.4;stroke-dasharray:4,3"/>
<rect x="449.38" y="133.00" width="24.00" height="12.00" style="fill:none;stroke:#000;stroke-width:0.4"/>
<rect x="449.38" y="133.00" width="24.00" height="12.00" style="fill:#9db8d9;fill-opacity:0.35;stroke:none"/>
<line x1="449.38" y1="133.00" x2="473.38" y2="133.00" style="fill:none;stroke:#c22;stroke-width:0.4;stroke-dasharray:4,3"/>
<rect x="509.17" y="133.00" width="24.00" height="12.00" style="fill:none;stroke:#000;stroke-width:0.4"/>
<rect x="509.17" y="133.00" width="24.00" height="12.00" style="fill:#9db8d9;fill-opacity:0.35;stroke:none"/>
<line x1="509.17" y1="133.00" x2="533.17" y2="133.00" style="fill:none;stroke:#c22;stroke-width:0.4;stroke-dasharray:4,3"/>
<rect x="568.96" y="133.00" width="24.00" height="12.00" style="fill:none;stroke:#000;stroke-width:0.4"/>
<rect x="568.96" y="133.00" width="24.00" height="12.00" style="fill:#9db8d9;fill-opacity:0.35;stroke:none"/>
<line x1="568.96" y1="133.00" x2="592.96" y2="133.00" style="fill:none;stroke:#c22;stroke-width:0.4;stroke-dasharray:4,3"/>
<rect x="628.75" y="133.00" width="24.00" height="12.00" style="fill:none;stroke:#000;stroke-width:0.4"/>
<rect x="628.75" y="133.00" width="24.00" height="12.00" style="fill:#9db8d9;fill-opacity:0.35;stroke:none"/>
<line x1="628.75" y1="133.00" x2="652.75" y2="133.00" style="fill:none;stroke:#c22;stroke-width:0.4;stroke-dasharray:4,3"/>
<rect x="688.54" y="133.00" width="24.00" height="12.00" style="fill:none;stroke:#000;stroke-width:0.4"/>
<rect x="688.54" y="133.00" width="24.00" height="12.00" style="fill:#9db8d9;fill-opacity:0.35;stroke:none"/>
<line x1="688.54" y1="133.00" x2="712.54" y2="133.00" style="fill:none;stroke:#c22;stroke-width:0.4;stroke-dasharray:4,3"/>
<rect x="748.32" y="133.00" width="24.00" height="12.00" style="fill:none;stroke:#000;stroke-width:0.4"/>
<rect x="748.32" y="133.00" width="24.00" height="12.00" style="fill:#9db8d9;fill-opacity:0.35;stroke:none"/>
<line x1="748.32" y1="133.00" x2="772.32" y2="133.00" style="fill:none;stroke:#c22;stroke-width:0.4;stroke-dasharray:4,3"/>
<rect x="808.11" y="133.00" width="24.00" height="12.00" style="fill:none;stroke:#000;stroke-width:0.4"/>
<rect x="808.11" y="133.00" width="24.00" height="12.00" style="fill:#9db8d9;fill-opacity:0.35;stroke:none"/>
<line x1="808.11" y1="133.00" x2="832.11" y2="133.00" style="fill:none;stroke:#c22;stroke-width:0.4;stroke-dasharray:4,3"/>
<rect x="867.90" y="133.00" width="24.00" height="12.00" style="fill:none;stroke:#000;stroke-width:0.4"/>
<rect x="867.90" y="133.00" width="24.00" height="12.00" style="fill:#9db8d9;fill-opacity:0.35;stroke:none"/>
<line x1="867.90" y1="133.00" x2="891.90" y2="133.00" style="fill:none;stroke:#c22;stroke-width:0.4;stroke-dasharray:4,3"/>
<rect x="927.69" y="133.00" width="24.00" height="12.00" style="fill:none;stroke:#000;stroke-width:0.4"/>
<rect x="927.69" y="133.00" width="24.00" height="12.00" style="fill:#9db8d9;fill-opacity:0.35;stroke:none"/>
<line x1="927.69" y1="133.00" x2="951.69" y2="133.00" style="fill:none;stroke:#c22;stroke-width:0.4;stroke-dasharray:4,3"/>
<rect x="987.48" y="133.00" width="24.00" height="12.00" style="fill:none;stroke:#000;stroke-width:0.4"/>
<rect x="987.48" y="133.00" width="24.00" height="12.00" style="fill:#9db8d9;fill-opacity:0.35;stroke:none"/>
<line x1="987.48" y1="133.00" x2="1011.48" y2="133.00" style="fill:none;stroke:#c22;stroke-width:0.4;stroke-dasharray:4,3"/>
<rect x="1047.27" y="133.00" width="24.00" height="12.00" style="fill:none;stroke:#000;stroke-width:0.4"/>
<rect x="1047.27" y="133.00" width="24.00" height="12.00" style="fill:#9db8d9;fill-opacity:0.35;stroke:none"/>
<line x1="1047.27" y1="133.00" x2="1071.27" y2="133.00" style="fill:none;stroke:#c22;stroke-width:0.4;stroke-dasharray:4,3"/>
<rect x="1107.06" y="133.00" width="24.00" height="12.00" style="fill:none;stroke:#000;stroke-width:0.4"/>
<rect x="1107.06" y="133.00" width="24.00" height="12.00" style="fill:#9db8d9;fill-opacity:0.35;stroke:none"/>
<line x1="1107.06" y1="133.00" x2="1131.06" y2="133.00" style="fill:none;stroke:#c22;stroke-width:0.4;stroke-dasharray:4,3"/>
<rect x="1166.84" y="133.00" width="24.00" height="12.00" style="fill:none;stroke:#000;stroke-width:0.4"/>
<rect x="1166.84" y="133.00" width="24.00" height="12.00" style="fill:#9db8d9;fill-opacity:0.35;stroke:none"/>
<line x1="1166.84" y1="133.00" x2="1190.84" y2="133.00" style="fill:none;stroke:#c22;stroke-width:0.4;stroke-dasharray:4,3"/>
<rect x="1226.63" y="133.00" width="24.00" height="12.00" style="fill:none;stroke:#000;stroke-width:0.4"/>
<rect x="1226.63" y="133.00" width="24.00" height="12.00" style="fill:#9db8d9;fill-opacity:0.35;stroke:none"/>
<line x1="1226.63" y1="133.00" x2="1250.63" y2="133.00" style="fill:none;stroke:#c22;stroke-width:0.4;stroke-dasharray:4,3"/>
<rect x="1286.42" y="133.00" width="24.00" height="12.00" style="fill:none;stroke:#000;stroke-width:0.4"/>
<rect x="1286.42" y="133.00" width="24.00" height="12.00" style="fill:#9db8d9;fill-opacity:0.35;stroke:none"/>
<line x1="1286.42" y1="133.00" x2="1310.42" y2="133.00" style="fill:none;stroke:#c22;stroke-width:0.4;stroke-dasharray:4,3"/>
<text x="356.70" y="48.00" style="font-family:Arial;font-size:9px;fill:#333" text-anchor="start">BASE wall strip — depth 81 (+12 tabs), wraps bottom disc, tabs glue under</text>
<line x1="356.70" y1="153.00" x2="1328.31" y2="153.00" style="stroke:#555;stroke-width:0.3"/>
<line x1="356.70" y1="151.00" x2="356.70" y2="155.00" style="stroke:#555;stroke-width:0.3"/>
<line x1="1328.31" y1="151.00" x2="1328.31" y2="155.00" style="stroke:#555;stroke-width:0.3"/>
<text x="842.51" y="151.00" style="font-family:Arial;font-size:8px;fill:#555" text-anchor="middle">971.6</text>
<rect x="356.70" y="179.00" width="987.95" height="34.00" style="fill:none;stroke:#000;stroke-width:0.4"/>
<rect x="356.70" y="179.00" width="15.00" height="34.00" style="fill:#9db8d9;fill-opacity:0.35;stroke:none"/>
<line x1="371.70" y1="179.00" x2="371.70" y2="213.00" style="fill:none;stroke:#c22;stroke-width:0.4;stroke-dasharray:4,3"/>
<rect x="390.10" y="213.00" width="24.00" height="12.00" style="fill:none;stroke:#000;stroke-width:0.4"/>
<rect x="390.10" y="213.00" width="24.00" height="12.00" style="fill:#9db8d9;fill-opacity:0.35;stroke:none"/>
<line x1="390.10" y1="213.00" x2="414.10" y2="213.00" style="fill:none;stroke:#c22;stroke-width:0.4;stroke-dasharray:4,3"/>
<rect x="450.91" y="213.00" width="24.00" height="12.00" style="fill:none;stroke:#000;stroke-width:0.4"/>
<rect x="450.91" y="213.00" width="24.00" height="12.00" style="fill:#9db8d9;fill-opacity:0.35;stroke:none"/>
<line x1="450.91" y1="213.00" x2="474.91" y2="213.00" style="fill:none;stroke:#c22;stroke-width:0.4;stroke-dasharray:4,3"/>
<rect x="511.72" y="213.00" width="24.00" height="12.00" style="fill:none;stroke:#000;stroke-width:0.4"/>
<rect x="511.72" y="213.00" width="24.00" height="12.00" style="fill:#9db8d9;fill-opacity:0.35;stroke:none"/>
<line x1="511.72" y1="213.00" x2="535.72" y2="213.00" style="fill:none;stroke:#c22;stroke-width:0.4;stroke-dasharray:4,3"/>
<rect x="572.53" y="213.00" width="24.00" height="12.00" style="fill:none;stroke:#000;stroke-width:0.4"/>
<rect x="572.53" y="213.00" width="24.00" height="12.00" style="fill:#9db8d9;fill-opacity:0.35;stroke:none"/>
<line x1="572.53" y1="213.00" x2="596.53" y2="213.00" style="fill:none;stroke:#c22;stroke-width:0.4;stroke-dasharray:4,3"/>
<rect x="633.34" y="213.00" width="24.00" height="12.00" style="fill:none;stroke:#000;stroke-width:0.4"/>
<rect x="633.34" y="213.00" width="24.00" height="12.00" style="fill:#9db8d9;fill-opacity:0.35;stroke:none"/>
<line x1="633.34" y1="213.00" x2="657.34" y2="213.00" style="fill:none;stroke:#c22;stroke-width:0.4;stroke-dasharray:4,3"/>
<rect x="694.15" y="213.00" width="24.00" height="12.00" style="fill:none;stroke:#000;stroke-width:0.4"/>
<rect x="694.15" y="213.00" width="24.00" height="12.00" style="fill:#9db8d9;fill-opacity:0.35;stroke:none"/>
<line x1="694.15" y1="213.00" x2="718.15" y2="213.00" style="fill:none;stroke:#c22;stroke-width:0.4;stroke-dasharray:4,3"/>
<rect x="754.96" y="213.00" width="24.00" height="12.00" style="fill:none;stroke:#000;stroke-width:0.4"/>
<rect x="754.96" y="213.00" width="24.00" height="12.00" style="fill:#9db8d9;fill-opacity:0.35;stroke:none"/>
<line x1="754.96" y1="213.00" x2="778.96" y2="213.00" style="fill:none;stroke:#c22;stroke-width:0.4;stroke-dasharray:4,3"/>
<rect x="815.77" y="213.00" width="24.00" height="12.00" style="fill:none;stroke:#000;stroke-width:0.4"/>
<rect x="815.77" y="213.00" width="24.00" height="12.00" style="fill:#9db8d9;fill-opacity:0.35;stroke:none"/>
<line x1="815.77" y1="213.00" x2="839.77" y2="213.00" style="fill:none;stroke:#c22;stroke-width:0.4;stroke-dasharray:4,3"/>
<rect x="876.58" y="213.00" width="24.00" height="12.00" style="fill:none;stroke:#000;stroke-width:0.4"/>
<rect x="876.58" y="213.00" width="24.00" height="12.00" style="fill:#9db8d9;fill-opacity:0.35;stroke:none"/>
<line x1="876.58" y1="213.00" x2="900.58" y2="213.00" style="fill:none;stroke:#c22;stroke-width:0.4;stroke-dasharray:4,3"/>
<rect x="937.39" y="213.00" width="24.00" height="12.00" style="fill:none;stroke:#000;stroke-width:0.4"/>
<rect x="937.39" y="213.00" width="24.00" height="12.00" style="fill:#9db8d9;fill-opacity:0.35;stroke:none"/>
<line x1="937.39" y1="213.00" x2="961.39" y2="213.00" style="fill:none;stroke:#c22;stroke-width:0.4;stroke-dasharray:4,3"/>
<rect x="998.20" y="213.00" width="24.00" height="12.00" style="fill:none;stroke:#000;stroke-width:0.4"/>
<rect x="998.20" y="213.00" width="24.00" height="12.00" style="fill:#9db8d9;fill-opacity:0.35;stroke:none"/>
<line x1="998.20" y1="213.00" x2="1022.20" y2="213.00" style="fill:none;stroke:#c22;stroke-width:0.4;stroke-dasharray:4,3"/>
<rect x="1059.01" y="213.00" width="24.00" height="12.00" style="fill:none;stroke:#000;stroke-width:0.4"/>
<rect x="1059.01" y="213.00" width="24.00" height="12.00" style="fill:#9db8d9;fill-opacity:0.35;stroke:none"/>
<line x1="1059.01" y1="213.00" x2="1083.01" y2="213.00" style="fill:none;stroke:#c22;stroke-width:0.4;stroke-dasharray:4,3"/>
<rect x="1119.82" y="213.00" width="24.00" height="12.00" style="fill:none;stroke:#000;stroke-width:0.4"/>
<rect x="1119.82" y="213.00" width="24.00" height="12.00" style="fill:#9db8d9;fill-opacity:0.35;stroke:none"/>
<line x1="1119.82" y1="213.00" x2="1143.82" y2="213.00" style="fill:none;stroke:#c22;stroke-width:0.4;stroke-dasharray:4,3"/>
<rect x="1180.63" y="213.00" width="24.00" height="12.00" style="fill:none;stroke:#000;stroke-width:0.4"/>
<rect x="1180.63" y="213.00" width="24.00" height="12.00" style="fill:#9db8d9;fill-opacity:0.35;stroke:none"/>
<line x1="1180.63" y1="213.00" x2="1204.63" y2="213.00" style="fill:none;stroke:#c22;stroke-width:0.4;stroke-dasharray:4,3"/>
<rect x="1241.44" y="213.00" width="24.00" height="12.00" style="fill:none;stroke:#000;stroke-width:0.4"/>
<rect x="1241.44" y="213.00" width="24.00" height="12.00" style="fill:#9db8d9;fill-opacity:0.35;stroke:none"/>
<line x1="1241.44" y1="213.00" x2="1265.44" y2="213.00" style="fill:none;stroke:#c22;stroke-width:0.4;stroke-dasharray:4,3"/>
<rect x="1302.25" y="213.00" width="24.00" height="12.00" style="fill:none;stroke:#000;stroke-width:0.4"/>
<rect x="1302.25" y="213.00" width="24.00" height="12.00" style="fill:#9db8d9;fill-opacity:0.35;stroke:none"/>
<line x1="1302.25" y1="213.00" x2="1326.25" y2="213.00" style="fill:none;stroke:#c22;stroke-width:0.4;stroke-dasharray:4,3"/>
<text x="356.70" y="175.00" style="font-family:Arial;font-size:9px;fill:#333" text-anchor="start">LID wall strip — depth 34 (+12 tabs)</text>
<line x1="356.70" y1="233.00" x2="1344.65" y2="233.00" style="stroke:#555;stroke-width:0.3"/>
<line x1="356.70" y1="231.00" x2="356.70" y2="235.00" style="stroke:#555;stroke-width:0.3"/>
<line x1="1344.65" y1="231.00" x2="1344.65" y2="235.00" style="stroke:#555;stroke-width:0.3"/>
<text x="850.68" y="231.00" style="font-family:Arial;font-size:8px;fill:#555" text-anchor="middle">988.0</text>
<text x="356.70" y="251.00" style="font-family:Arial;font-size:9px;fill:#333" text-anchor="start">Assembly: wrap wall around its disc, glue end overlap, fold tabs under disc and glue.</text>
<text x="356.70" y="262.00" style="font-family:Arial;font-size:9px;fill:#333" text-anchor="start">Stack in the box: base+disk (15 mm) on the floor → insert tray with the two pieces → top pad → lid.</text>
<text x="356.70" y="273.00" style="font-family:Arial;font-size:9px;fill:#333" text-anchor="start">Wrap both cups in printed paper (add 15 mm turn-in) — standard rigid setup-box construction.</text>
<text x="356.70" y="284.00" style="font-family:Arial;font-size:9px;fill:#333" text-anchor="start">The ~297.5 base is slightly oval (297.5 x 277.5); the round box clears the larger span, ~10 mm gap on the short axis.</text>
</svg>
