<svg xmlns="http://www.w3.org/2000/svg" width="688mm" height="1198mm" viewBox="0 0 688 1198">
<title>Tau flat-pack box 400</title>
<rect x="0" y="0" width="688" height="1198" fill="white"/>
<text x="15.00" y="14.00" style="font-family:Arial;font-size:13px;font-weight:bold;fill:#000" text-anchor="start">TAU — FLAT-PACK box (400): rectangular telescoping tray, 1 unit = 1 mm</text>
<text x="15.00" y="27.00" style="font-family:Arial;font-size:9px;fill:#333" text-anchor="start">Inner 436.0 x 405.0 x 103.0 deep. Packing: steel disk flat -> 4 rim segments stacked (40.0 mm) -> insert tray -> pieces -> pad.</text>
<text x="20.00" y="40.00" style="font-family:Arial;font-size:9px;fill:#333" text-anchor="start">BASE tray  436.0 x 405.0 x 103.0</text>
<rect x="123.0" y="149.0" width="436.0" height="405.0" style="fill:none;stroke:#c22;stroke-width:0.4;stroke-dasharray:4,3"/><polygon points="123.0,46.0 559.0,46.0 559.0,149.0 577.0,149.0 577.0,554.0 559.0,554.0 559.0,657.0 123.0,657.0 123.0,554.0 105.0,554.0 105.0,149.0 123.0,149.0" style="fill:none;stroke:#000;stroke-width:0.4"/><line x1="123.0" y1="149.0" x2="559.0" y2="149.0" style="fill:none;stroke:#c22;stroke-width:0.4;stroke-dasharray:4,3"/><line x1="123.0" y1="554.0" x2="559.0" y2="554.0" style="fill:none;stroke:#c22;stroke-width:0.4;stroke-dasharray:4,3"/><line x1="123.0" y1="149.0" x2="123.0" y2="554.0" style="fill:none;stroke:#c22;stroke-width:0.4;stroke-dasharray:4,3"/><line x1="559.0" y1="149.0" x2="559.0" y2="554.0" style="fill:none;stroke:#c22;stroke-width:0.4;stroke-dasharray:4,3"/><text x="20.00" y="685.00" style="font-family:Arial;font-size:9px;fill:#333" text-anchor="start">LID  441.2 x 410.2 x 43 (telescopes over base)</text>
<rect x="63" y="734.0" width="441.2" height="410.2" style="fill:none;stroke:#c22;stroke-width:0.4;stroke-dasharray:4,3"/><polygon points="63.0,691.0 504.2,691.0 504.2,734.0 522.2,734.0 522.2,1144.2 504.2,1144.2 504.2,1187.2 63.0,1187.2 63.0,1144.2 45.0,1144.2 45.0,734.0 63.0,734.0" style="fill:none;stroke:#000;stroke-width:0.4"/><line x1="63" y1="734.0" x2="504.2" y2="734.0" style="fill:none;stroke:#c22;stroke-width:0.4;stroke-dasharray:4,3"/><line x1="63" y1="1144.2" x2="504.2" y2="1144.2" style="fill:none;stroke:#c22;stroke-width:0.4;stroke-dasharray:4,3"/><line x1="63" y1="734.0" x2="63" y2="1144.2" style="fill:none;stroke:#c22;stroke-width:0.4;stroke-dasharray:4,3"/><line x1="504.2" y1="734.0" x2="504.2" y2="1144.2" style="fill:none;stroke:#c22;stroke-width:0.4;stroke-dasharray:4,3"/></svg>
